<?xml version="1.0" encoding="iso-8859-1"?>
<!-- Generator: Adobe Illustrator 16.0.0, SVG Export Plug-In . SVG Version: 6.00 Build 0)  -->
<!DOCTYPE svg PUBLIC "-//W3C//DTD SVG 1.1//EN" "http://www.w3.org/Graphics/SVG/1.1/DTD/svg11.dtd">
<svg version="1.1" id="Capa_1" xmlns="http://www.w3.org/2000/svg" xmlns:xlink="http://www.w3.org/1999/xlink" x="0px" y="0px"
	 width="128px" height="128px" viewBox="0 -10 112 112" style="enable-background:new 0 0 112 112;" xml:space="preserve">
<g>
	<path fill="#DDD" d="M83.748,66.324c-1.354,8.844-8.582,16.071-17.426,17.426c-14.191,2.174-26.24-9.875-24.065-24.067
		c1.353-8.843,8.582-16.072,17.425-17.425C73.869,40.083,85.918,52.125,83.748,66.324z M112,31.85v62.299
		c0,4.705-3.812,8.519-8.512,8.519H8.516C3.813,102.667,0,98.854,0,94.155V31.85c0-4.704,3.812-8.517,8.517-8.517h0.817v-1.895
		c0-1.531,1.241-2.772,2.772-2.772h13.123c1.53,0,2.771,1.241,2.771,2.772v1.895h7.229l5.717-11.816
		c0.645-1.334,1.998-2.184,3.478-2.184H81.58c1.479,0,2.832,0.85,3.471,2.184l5.717,11.816h12.717
		C108.188,23.333,112,27.146,112,31.85z M24.5,32.667c0-3.22-2.613-5.833-5.833-5.833s-5.833,2.613-5.833,5.833
		c0,3.22,2.613,5.833,5.833,5.833S24.5,35.886,24.5,32.667z M56.061,33.437C44.909,35.91,35.912,44.908,33.438,56.061
		c-4.91,22.129,14.373,41.407,36.501,36.502c11.153-2.475,20.149-11.473,22.625-22.625C97.469,47.811,78.189,28.532,56.061,33.437z"
		/>
</g>
 </svg>
