<?xml version="1.0" standalone="no"?>
<!DOCTYPE svg PUBLIC "-//W3C//DTD SVG 20010904//EN"
 "http://www.w3.org/TR/2001/REC-SVG-20010904/DTD/svg10.dtd">
<svg version="1.0"  xmlns="http://www.w3.org/2000/svg"
 width="456px" height="456px" viewBox="0 0 820.000000 820.000000"
 preserveAspectRatio="xMidYMid meet">
<metadata>
Created by potrace 1.12, written by Peter Selinger 2001-2015
</metadata>
<g transform="translate(0.000000,820.000000) scale(0.100000,-0.100000)"
fill="#999" stroke="none">
<path d="M1100 4204 l0 -3006 503 7 c276 4 503 9 505 10 2 2 -43 88 -99 191
-237 438 -389 798 -439 1045 -83 406 93 871 432 1143 150 121 295 193 487 243
133 35 346 43 491 18 531 -88 937 -501 1021 -1037 7 -47 10 -129 6 -210 -4
-112 -11 -153 -40 -258 -72 -254 -196 -538 -409 -932 l-91 -168 -183 0 c-116
0 -184 -4 -184 -10 0 -6 -87 -10 -240 -10 -153 0 -240 -4 -240 -10 0 -6 -90
-10 -250 -10 -137 0 -250 -3 -250 -6 0 -35 638 -1054 660 -1054 22 0 483 732
644 1022 l37 66 62 7 c299 31 683 139 942 264 501 241 747 578 780 1066 22
323 -76 580 -302 796 -201 192 -415 325 -1023 639 -494 254 -658 353 -830 496
-96 79 -282 270 -344 352 -108 142 -209 346 -250 507 -61 240 -70 580 -20 820
21 101 70 246 119 351 99 213 310 469 507 615 l80 59 -1041 0 -1041 0 0 -3006z"/>
<path d="M5288 7200 c-224 -4 -447 -11 -495 -15 -457 -36 -972 -181 -1238
-349 l-40 -25 1793 -1 1792 0 0 200 0 200 -702 -2 c-387 -1 -886 -5 -1110 -8z"/>
<path d="M3052 6283 c-28 -71 -56 -150 -62 -178 -5 -27 -12 -60 -15 -72 l-5
-23 2065 0 2065 0 0 200 0 200 -1998 0 -1999 0 -51 -127z"/>
<path d="M2970 5601 c0 -37 56 -214 93 -294 l46 -97 1995 0 1996 0 0 200 0
200 -2065 0 c-1168 0 -2065 -4 -2065 -9z"/>
<path d="M3985 4799 c-422 -7 -405 -7 -405 -17 0 -5 161 -90 359 -190 l358
-182 1402 0 1401 0 0 200 0 200 -1377 -2 c-758 -1 -1540 -5 -1738 -9z"/>
<path d="M5030 4006 c0 -3 48 -44 108 -92 59 -49 155 -137 214 -196 l107 -108
821 0 820 0 0 200 0 200 -1035 0 c-569 0 -1035 -2 -1035 -4z"/>
<path d="M2671 3280 c-142 -30 -256 -92 -351 -190 -147 -151 -210 -372 -166
-574 54 -239 245 -436 478 -491 81 -19 215 -19 298 1 206 48 385 212 456 419
25 70 28 95 29 200 0 97 -4 134 -22 190 -82 259 -316 439 -588 450 -49 2 -110
0 -134 -5z"/>
<path d="M5673 3195 c4 -8 22 -88 42 -177 19 -90 38 -173 40 -185 l5 -23 670
0 670 0 0 200 0 200 -716 0 c-625 0 -715 -2 -711 -15z"/>
<path d="M5930 2400 c-80 -4 -152 -10 -161 -14 -10 -4 -19 -24 -22 -49 -5 -35
-19 -87 -84 -309 -5 -17 34 -18 716 -18 l721 0 0 200 0 200 -512 -2 c-282 -1
-578 -4 -658 -8z"/>
<path d="M6201 1603 l-785 -3 -170 -168 c-94 -92 -189 -179 -211 -192 l-40
-25 590 -6 c325 -3 798 -7 1053 -8 l462 -1 0 205 0 205 -57 -2 c-32 -2 -411
-4 -842 -5z"/>
</g>
</svg>
